<svg width="1080" height="604" viewBox="0 0 1080 604" fill="none" xmlns="http://www.w3.org/2000/svg">
<g clip-path="url(#clip0)">
<path d="M389.262 249.941L383.35 268.313C373.287 299.587 344.19 320.791 311.338 320.791C280.694 320.791 253.077 339.277 241.398 367.608L238.888 373.697C229.574 396.292 211.033 413.821 187.951 421.854L168.589 428.592C134.155 440.575 106.267 466.357 91.6223 499.745L63 565H586.923L624.815 514.018C629.966 507.088 632.542 503.622 635.196 500.41C658.775 471.877 691.417 452.282 727.686 444.889C731.769 444.057 736.039 443.413 744.577 442.126C755.76 440.44 761.351 439.597 766.556 438.458C813.061 428.283 852.735 398.16 875.029 356.098C877.524 351.391 879.838 346.231 884.466 335.913L903.478 293.525C911.247 276.203 922.681 260.772 936.991 248.297C965.587 223.368 982 187.286 982 149.349V146.408C982 65.566 912.702 2.10687 832.173 9.20355L745.266 16.8623C724.089 18.7285 713.501 19.6616 703.522 21.8287C672.444 28.5777 644.041 44.3275 621.857 67.1134C614.733 74.4301 608.333 82.9171 595.534 99.891L572.623 130.276C552.326 157.193 521.831 174.552 488.325 178.263L475.242 179.712C435.25 184.142 401.586 211.639 389.262 249.941Z" fill="#357EDE" fill-opacity="0.05"/>
<path d="M389.262 249.941L383.35 268.313C373.287 299.587 344.19 320.791 311.338 320.791C280.694 320.791 253.077 339.277 241.398 367.608L238.888 373.697C229.574 396.292 211.033 413.821 187.951 421.854L168.589 428.592C134.155 440.575 106.267 466.357 91.6223 499.745L63 565H586.923L624.815 514.018C629.966 507.088 632.542 503.622 635.196 500.41C658.775 471.877 691.417 452.282 727.686 444.889C731.769 444.057 736.039 443.413 744.577 442.126C755.76 440.44 761.351 439.597 766.556 438.458C813.061 428.283 852.735 398.16 875.029 356.098C877.524 351.391 879.838 346.231 884.466 335.913L903.478 293.525C911.247 276.203 922.681 260.772 936.991 248.297C965.587 223.368 982 187.286 982 149.349V146.408C982 65.566 912.702 2.10687 832.173 9.20355L745.266 16.8623C724.089 18.7285 713.501 19.6616 703.522 21.8287C672.444 28.5777 644.041 44.3275 621.857 67.1134C614.733 74.4301 608.333 82.9171 595.534 99.891L572.623 130.276C552.326 157.193 521.831 174.552 488.325 178.263L475.242 179.712C435.25 184.142 401.586 211.639 389.262 249.941Z" fill="url(#paint0_radial)"/>
<g opacity="0.25">
<line x1="469.963" y1="145.393" x2="471.285" y2="149.654" stroke="#FF4C00" stroke-width="4.37316" stroke-linecap="round"/>
<line x1="464.775" y1="160.417" x2="452.076" y2="164.358" stroke="#FF4C00" stroke-width="4.37316" stroke-linecap="round"/>
<line x1="495.148" y1="150.99" x2="482.449" y2="154.931" stroke="#FF4C00" stroke-width="4.37316" stroke-linecap="round"/>
<mask id="path-5-inside-1" fill="white">
<path fill-rule="evenodd" clip-rule="evenodd" d="M449.389 151.154C445.295 151.568 441.338 149.063 440.071 144.98C438.625 140.32 441.23 135.37 445.89 133.924C447.135 133.537 448.401 133.44 449.615 133.594C448.345 126.223 453.038 118.756 460.788 116.351C466.605 114.546 472.617 116.066 476.575 119.81C477.721 118.837 479.077 118.075 480.602 117.602C486.66 115.722 493.095 119.109 494.975 125.167C496.767 130.941 493.775 137.057 488.245 139.246L488.255 139.278L449.442 151.323L449.389 151.154Z"/>
</mask>
<path d="M449.389 151.154L453.566 149.858L452.506 146.443L448.949 146.803L449.389 151.154ZM449.615 133.594L449.065 137.932L454.929 138.676L453.925 132.851L449.615 133.594ZM476.575 119.81L473.571 122.987L476.418 125.68L479.406 123.144L476.575 119.81ZM488.245 139.246L486.636 135.179L482.867 136.671L484.069 140.542L488.245 139.246ZM488.255 139.278L489.551 143.455L493.728 142.159L492.432 137.982L488.255 139.278ZM449.442 151.323L445.265 152.619L446.561 156.796L450.738 155.5L449.442 151.323ZM448.949 146.803C446.883 147.012 444.886 145.741 444.248 143.684L435.895 146.276C437.79 152.384 443.706 156.124 449.83 155.505L448.949 146.803ZM444.248 143.684C443.518 141.33 444.833 138.831 447.187 138.1L444.594 129.747C437.628 131.909 433.733 139.309 435.895 146.276L444.248 143.684ZM447.187 138.1C447.823 137.903 448.459 137.856 449.065 137.932L450.165 129.256C448.344 129.025 446.448 129.172 444.594 129.747L447.187 138.1ZM453.925 132.851C453.055 127.804 456.272 122.331 462.084 120.527L459.492 112.174C449.803 115.181 443.634 124.642 445.306 134.337L453.925 132.851ZM462.084 120.527C466.416 119.183 470.778 120.346 473.571 122.987L479.58 116.632C474.455 111.786 466.794 109.908 459.492 112.174L462.084 120.527ZM479.406 123.144C480.11 122.546 480.946 122.074 481.899 121.778L479.306 113.425C477.208 114.076 475.332 115.129 473.745 116.476L479.406 123.144ZM481.899 121.778C485.65 120.614 489.635 122.712 490.799 126.463L499.152 123.871C496.556 115.506 487.671 110.829 479.306 113.425L481.899 121.778ZM490.799 126.463C491.908 130.036 490.056 133.826 486.636 135.179L489.855 143.312C497.494 140.288 501.627 131.845 499.152 123.871L490.799 126.463ZM484.069 140.542L484.079 140.574L492.432 137.982L492.422 137.949L484.069 140.542ZM486.959 135.101L448.146 147.146L450.738 155.5L489.551 143.455L486.959 135.101ZM453.619 150.027L453.566 149.858L445.213 152.45L445.265 152.619L453.619 150.027Z" fill="#00B795" mask="url(#path-5-inside-1)"/>
<circle cx="473.356" cy="156.852" r="3.53386" transform="rotate(-17.2406 473.356 156.852)" fill="#00B795"/>
<rect width="34.3234" height="4.29042" rx="2.14521" transform="matrix(0.985993 0.166786 -0.179397 0.983777 738.934 146.793)" fill="#4A65AF"/>
<rect width="39.2267" height="2.45167" rx="1.22583" transform="matrix(0.985993 0.166786 -0.179397 0.983777 737.061 138.189)" fill="#4A65AF"/>
<path d="M743.217 131.75C743.429 130.584 744.549 129.799 745.717 129.997L746.079 130.058C747.247 130.256 748.022 131.361 747.81 132.526L746.494 139.74L741.901 138.963L743.217 131.75Z" fill="#FF2633"/>
<path d="M752.569 126.93C752.782 125.761 753.905 124.974 755.076 125.172L755.427 125.232C756.598 125.43 757.375 126.538 757.162 127.707L754.714 141.131L750.121 140.354L752.569 126.93Z" fill="#4A65AF"/>
<path d="M760.223 131.422C760.435 130.257 761.554 129.472 762.723 129.67L763.085 129.731C764.253 129.929 765.028 131.034 764.815 132.199L762.933 142.521L758.34 141.744L760.223 131.422Z" fill="#FF2633"/>
<path d="M769.575 126.603C769.788 125.434 770.911 124.647 772.082 124.845L772.433 124.904C773.604 125.103 774.381 126.211 774.168 127.38L771.153 143.912L766.56 143.135L769.575 126.603Z" fill="#4A65AF"/>
<path d="M745.42 124.231L754.329 116.919L764.906 121.228L772.144 116.154" stroke="#FF2633" stroke-width="3.44187" stroke-linecap="round" stroke-linejoin="round"/>
<circle r="2.24498" transform="matrix(0.985993 0.166786 -0.179397 0.983777 754.313 117.547)" fill="white" stroke="#4A65AF" stroke-width="1.72093"/>
<circle r="2.24498" transform="matrix(0.985993 0.166786 -0.179397 0.983777 765.114 120.634)" fill="white" stroke="#4A65AF" stroke-width="1.72093"/>
<rect x="1.73032" y="2.4682" width="52.9152" height="38.6138" rx="3.57535" transform="matrix(0.985993 0.166786 -0.179397 0.983777 737.059 98.2876)" stroke="#4A65AF" stroke-width="4.29042"/>
<rect x="149.884" y="53.5628" width="62.1432" height="40.4079" rx="5.94559" transform="rotate(23.2992 149.884 53.5628)" stroke="#4A65AF" stroke-width="5.03864"/>
<path d="M180.178 80.1594C181.624 81.9289 180.476 84.5929 178.197 84.7586L165.594 85.6748C163.483 85.8283 161.961 83.6887 162.798 81.7446L167.407 71.0416C168.244 69.0975 170.845 68.7333 172.184 70.3727L180.178 80.1594Z" fill="#FF2633"/>
<line x1="143.478" y1="103.405" x2="173.332" y2="116.261" stroke="#4A65AF" stroke-width="5.03864" stroke-linecap="round"/>
<ellipse cx="144.735" cy="87.0264" rx="2.9639" ry="2.9639" transform="rotate(23.2992 144.735 87.0264)" fill="#FF2633"/>
<path d="M152.799 92.2095L155.891 93.5413L155.303 94.908L150.434 92.811L153.607 85.4413L155.384 86.2064L152.799 92.2095ZM157.945 96.0458L156.173 95.2829L159.347 87.9132L161.119 88.6761L157.945 96.0458ZM162.903 95.8049L166.681 91.0717L168.666 91.9262L163.012 98.2278L161.068 97.3908L161.782 88.9617L163.751 89.8096L162.903 95.8049ZM171.949 98.3745L169.155 97.1712L168.399 98.9276L171.699 100.349L171.11 101.715L166.033 99.5291L169.207 92.1594L174.294 94.3501L173.703 95.7218L170.393 94.2962L169.724 95.8502L172.518 97.0534L171.949 98.3745Z" fill="#FF2633"/>
<rect x="360.756" y="462.172" width="9.11655" height="9.11655" rx="4.55827" transform="rotate(4.56795 360.756 462.172)" stroke="#FFA500" stroke-width="3.16895"/>
<rect x="375.008" y="443.699" width="6.77569" height="6.77569" rx="3.38784" transform="rotate(4.56795 375.008 443.699)" stroke="#FFA500" stroke-width="3.16895"/>
<mask id="path-25-inside-2" fill="white">
<rect x="361.479" y="448.589" width="8.4941" height="8.4941" rx="1.58448" transform="rotate(4.56794 361.479 448.589)"/>
</mask>
<rect x="361.479" y="448.589" width="8.4941" height="8.4941" rx="1.58448" transform="rotate(4.56794 361.479 448.589)" stroke="#FFA500" stroke-width="6.33791" mask="url(#path-25-inside-2)"/>
<path d="M369.836 492.097L371.594 493.763L381.527 503.173C383.878 505.401 387.531 505.497 389.996 503.396L408.039 488.024C410.504 485.923 410.989 482.301 409.163 479.626L401.45 468.325L400.084 466.325" stroke="#5B5AA8" stroke-width="4.75343" stroke-linecap="round"/>
<path d="M396.325 468.417C395.079 480.098 384.225 489.345 372.494 488.722" stroke="#FFA500" stroke-width="4.75343" stroke-linecap="round"/>
<path d="M357.748 480.915L389.029 454.262C390.466 453.038 392.647 453.333 393.707 454.895L395.568 457.638C396.476 458.976 396.232 460.782 395.001 461.83L364.272 488.013C363.042 489.061 361.22 489.015 360.043 487.907L357.63 485.633C356.257 484.339 356.312 482.139 357.748 480.915Z" stroke="#5B5AA8" stroke-width="4.75343"/>
<path d="M205.874 392.155L192.969 386.839M180.064 381.522L192.969 386.839M192.969 386.839L190.069 393.877" stroke="#FF0120" stroke-width="4.22971" stroke-linecap="round"/>
<rect x="183.029" y="390.979" width="15.2256" height="12.688" rx="2.81981" transform="rotate(22.3891 183.029 390.979)" stroke="#FF0120" stroke-width="4.22971"/>
<path d="M222.645 381.421C221.616 383.92 216.054 383.999 210.223 381.597C204.392 379.195 200.499 375.221 201.528 372.722M204.085 366.521L199.113 378.588C198.084 381.087 201.976 385.061 207.808 387.463C213.639 389.865 219.201 389.787 220.23 387.287L225.202 375.22M204.085 366.521C203.056 369.02 206.947 372.993 212.779 375.396C218.61 377.798 224.173 377.719 225.202 375.22M204.085 366.521C205.115 364.022 210.676 363.943 216.507 366.346C222.338 368.748 226.232 372.721 225.202 375.22" stroke="#1191D0" stroke-width="4.22972"/>
<path d="M196.837 370.789C195.807 373.288 190.245 373.367 184.414 370.965C178.583 368.563 174.69 364.589 175.72 362.09M178.277 355.889L173.305 367.957C172.275 370.456 176.168 374.429 181.999 376.831C187.83 379.233 193.392 379.155 194.421 376.656L199.393 364.588M178.277 355.889C177.247 358.388 181.139 362.362 186.97 364.764C192.801 367.166 198.364 367.087 199.393 364.588M178.277 355.889C179.306 353.39 184.867 353.312 190.698 355.714C196.529 358.116 200.423 362.089 199.393 364.588" stroke="#1191D0" stroke-width="4.22972"/>
<rect x="0.824832" y="2.9226" width="19.2908" height="19.2908" rx="3.63757" transform="matrix(0.880292 0.474432 -0.502369 0.864653 808.999 418.168)" stroke="#FFA800" stroke-width="4.36508"/>
<rect x="0.824832" y="2.9226" width="19.2908" height="19.2908" rx="3.63757" transform="matrix(0.880292 0.474432 -0.502369 0.864653 795.415 441.544)" stroke="#FFA800" stroke-width="4.36508"/>
<rect x="840.96" y="437.847" width="15.0109" height="14.4891" rx="3.63756" transform="matrix(0.263659 0.960066 -0.964616 0.279772 1041.59 -492.028)" stroke="#1400F5" stroke-width="4.36508"/>
<rect x="0.824832" y="2.9226" width="19.2908" height="19.2908" rx="3.63757" transform="matrix(0.880292 0.474432 -0.502369 0.864653 819.215 454.369)" stroke="#FFA800" stroke-width="4.36508"/>
</g>
<path d="M79.9557 381.061H222.041V426.71H297.934V381.061H331.6V319.433H297.934V134.552H197.504L79.9557 319.433V381.061ZM223.753 319.433H158.131V317.151L221.47 216.721H223.753V319.433Z" fill="#0477FF"/>
<path d="M492.124 434.699C571.583 434.842 620.942 377.922 621.084 281.202C621.227 185.052 571.583 130.557 492.124 130.557C412.522 130.557 363.448 184.766 363.163 281.202C362.878 377.494 412.522 434.557 492.124 434.699ZM492.124 370.219C464.734 370.219 445.047 342.686 445.333 281.202C445.618 221.144 464.734 194.467 492.124 194.467C519.514 194.467 538.772 221.144 538.915 281.202C539.057 342.686 519.514 370.219 492.124 370.219Z" fill="#FF4C4C"/>
<path d="M655.464 381.061H797.549V426.71H873.442V381.061H907.109V319.433H873.442V134.552H773.013L655.464 319.433V381.061ZM799.261 319.433H733.64V317.151L796.979 216.721H799.261V319.433Z" fill="#65ACFF"/>
<path d="M285.235 320.299V145.776H202.74M492.16 423.583C563.134 423.715 606.699 371.279 606.831 281.767M814.516 416.962H862.617V371.941H895.059V334.83" stroke="black" stroke-opacity="0.25" stroke-width="5.81229" stroke-linecap="round" stroke-linejoin="round"/>
<ellipse cx="548" cy="564" rx="485" ry="6" fill="#E1E2E3"/>
<path d="M857.783 176.401L919.322 152.109L921.751 186.118L875.154 205.305C870.656 207.157 865.553 204.654 864.263 199.965L857.783 176.401Z" fill="#FFBF9D"/>
<path d="M975.091 545.599V532.455L1011.24 528.074L1013.43 559.838L953.212 564.139C950.934 564.302 949.958 561.306 951.895 560.096L975.091 545.599Z" fill="#6B6B6B"/>
<path d="M880.786 538.246L883.959 525.491L920.093 529.967L914.549 561.32L855.078 550.955C852.828 550.563 852.604 547.421 854.776 546.714L880.786 538.246Z" fill="#6B6B6B"/>
<path d="M894.585 408.448L917.039 289.295H1007.95L1018.36 540.245L968.519 541.217L957.566 369.541L946.065 412.825L922.516 540.245L875.965 532.463L894.585 408.448Z" fill="#98C5FF"/>
<path d="M957.567 369.801L954.281 339.68" stroke="black" stroke-width="1.09531"/>
<path d="M950.451 283.271V326.536L956.475 320.512V283.271" stroke="#5892DC" stroke-width="1.09531" stroke-linecap="round" stroke-linejoin="round"/>
<path d="M998.96 151.286H923.35C920.675 151.286 918.04 151.939 915.675 153.188L882.266 170.839L884.112 204.88L921.907 192.681L915.946 291.486H1006.81L1003.57 221.386L1029.31 213.719L1014.75 163.167C1012.72 156.131 1006.28 151.286 998.96 151.286Z" fill="#FF7051"/>
<path d="M938.756 143.202L880.456 189.356L883.694 201.502L872.466 206.314C869.067 207.771 865.113 206.74 862.859 203.809L854.237 192.6C848.074 184.589 850.676 172.951 859.663 168.327L925.8 134.295L938.756 115.671L958.189 117.291L967.906 125.388L959.809 134.295L950.902 141.583L938.756 143.202Z" fill="#FFBF9D"/>
<path d="M938.756 143.202L880.456 189.356L883.694 201.502L872.466 206.314C869.067 207.771 865.113 206.74 862.859 203.809L854.237 192.6C848.074 184.589 850.676 172.951 859.663 168.327L925.8 134.295L938.756 115.671L958.189 117.291L967.906 125.388L959.809 134.295L950.902 141.583L938.756 143.202Z" fill="url(#paint1_linear)"/>
<path d="M935.119 92.1387H976.741V142.523H942.786C938.552 142.523 935.119 139.09 935.119 134.856V92.1387Z" fill="#FFBF9D"/>
<path d="M954.286 130.475L942.785 129.379C943.515 127.919 944.647 124.998 947.714 124.998C950.781 124.998 953.738 128.649 954.286 130.475Z" fill="white"/>
<path d="M967.971 111.855L966.093 105.471C965.583 103.736 963.991 102.545 962.182 102.545H928.813C924.73 102.545 921.42 99.2344 921.42 95.1512C921.42 91.0679 924.73 87.7578 928.813 87.7578H930.73C930.73 81.7086 935.634 76.8047 941.683 76.8047H969.066C975.418 76.8047 980.567 81.9538 980.567 88.3055V97.6156L979.122 130.854C979.011 133.398 976.916 135.404 974.37 135.404C971.743 135.404 969.614 133.275 969.614 130.648V123.355L972.417 119.752C973.085 118.893 973.447 117.836 973.447 116.748C973.447 114.045 971.257 111.855 968.554 111.855H967.971Z" fill="#313131"/>
<path d="M936.213 190.717H946.071V207.01L938.404 209.338L930.736 207.01V190.717" stroke="#DB3A17" stroke-width="1.09531"/>
<path d="M1004.12 244.935L1000.84 220.838L1024.93 214.814L1028.22 241.101L1004.12 318.321H982.217L1004.12 244.935Z" fill="#FFBF9D"/>
<path d="M952.639 142.523H976.736V152.381C976.736 159.035 971.341 164.429 964.687 164.429V164.429C958.033 164.429 952.639 159.035 952.639 152.381V142.523Z" fill="#FFBF9D"/>
<path d="M1008.5 317.773L1005.31 317.361C993.341 315.811 985.224 304.397 987.688 292.581L972.354 303.534L980.568 324.345L1008.5 317.773Z" fill="#98C5FF"/>
<path d="M922.542 186.324L921.906 192.681" stroke="black" stroke-width="1.09531"/>
<path d="M1000.83 220.838L997.545 221.933L990.973 202.218" stroke="black" stroke-width="1.09531"/>
<path d="M952.639 142.523H960.854" stroke="black" stroke-width="1.09531"/>
<path d="M979.475 298.058V299.792C979.475 312.187 988.157 322.887 1000.29 325.44V325.44L1007.95 510.548" stroke="#5892DC" stroke-width="1.09531" stroke-linecap="round" stroke-linejoin="round"/>
<path d="M943.57 34.6987H962.693C967.82 34.6987 971.976 38.8551 971.976 43.9823V43.9823C971.976 49.1095 967.82 53.2659 962.693 53.2659H943.878C941.049 53.2659 938.756 50.9727 938.756 48.1439V48.1439C938.756 45.3151 941.049 43.0219 943.878 43.0219H964.78C970.084 43.0219 974.384 47.3217 974.384 52.6257V52.6257C974.384 57.9296 970.084 62.2294 964.78 62.2294H951.274" stroke="#6A6A6A" stroke-width="3.2389" stroke-linecap="round" stroke-linejoin="round"/>
</g>
<defs>
<radialGradient id="paint0_radial" cx="0" cy="0" r="1" gradientUnits="userSpaceOnUse" gradientTransform="translate(574.089 255.235) rotate(90) scale(230.148 407.911)">
<stop stop-color="#357EDE" stop-opacity="0.1"/>
<stop offset="1" stop-color="#357EDE" stop-opacity="0"/>
</radialGradient>
<linearGradient id="paint1_linear" x1="941.185" y1="134.295" x2="869.119" y2="200.692" gradientUnits="userSpaceOnUse">
<stop stop-color="white" stop-opacity="0.27"/>
<stop offset="1" stop-color="#E89A71" stop-opacity="0"/>
</linearGradient>
<clipPath id="clip0">
<rect width="1080" height="604" fill="white"/>
</clipPath>
</defs>
</svg>
